<svg id="panyals" enable-background="new 0 0 64 64" height="512" viewBox="0 0 64 64" width="512" xmlns="http://www.w3.org/2000/svg" xmlns:xlink="http://www.w3.org/1999/xlink">
    <linearGradient id="SVGID_1_" gradientUnits="userSpaceOnUse" x1="32" x2="32" y1="56" y2="8">
        <stop offset="0" stop-color="#9f2fff" />
        <stop offset="1" stop-color="#0bb1d3" />
    </linearGradient>
    <path d="m46.403 36.784-1.242-1.568c2.423-1.919 5.031-3.622 7.751-5.062l1.959-1.037.936 1.768-1.959 1.037c-2.613 1.382-5.118 3.018-7.445 4.862zm-2.323 1.96-1.337-1.488c-.732.658-1.453 1.344-2.144 2.04l1.42 1.408c.664-.669 1.356-1.328 2.061-1.96zm-29.323-6.445c-.572-.367-1.151-.723-1.738-1.067l-1.013 1.725c.563.331 1.12.673 1.67 1.026zm3.34 2.342c-.541-.413-1.09-.814-1.646-1.204l-1.148 1.637c.535.376 1.062.762 1.582 1.157zm-7.791-2.638.923-1.775-1.761-.932-.936 1.768zm52.694-19.003v20.679c0 1.79-.965 3.453-2.52 4.341l-2.592 1.482c-6.011 3.435-11.217 8.294-15.056 14.053l-.147.221-.237.119c-.173.085-4.283 2.105-10.448 2.105s-10.275-2.02-10.447-2.105l-.237-.119-.147-.221c-3.839-5.759-9.045-10.618-15.056-14.053l-2.594-1.482c-1.554-.888-2.519-2.551-2.519-4.341v-20.679c0-2.757 2.243-5 5-5h19c1.302 0 2.402.839 2.816 2h8.369c.413-1.161 1.513-2 2.815-2h19c2.757 0 5 2.243 5 5zm-2 1h-19v4.014c6.381.18 12.576 2.076 17.974 5.512l1.026.652zm-23 8.012c8.2.184 16.123 2.636 23 7.122v-2.585l-2.1-1.336c-5.358-3.41-11.548-5.213-17.9-5.213h-1v-8h20.816c-.414-1.161-1.514-2-2.816-2h-19c-.551 0-1 .448-1 1zm-2-10.012h-8v8h8zm-9 12c-8.221 0-16.182 2.389-23.044 6.904l5.261 2.785c4.137 2.191 7.916 5.009 11.215 8.312h23.137c3.299-3.302 7.078-6.121 11.215-8.312l5.261-2.785c-6.863-4.515-14.824-6.904-23.045-6.904h-1v-2h-8v2zm-24-10v10.179l1.027-.653c5.397-3.436 11.592-5.333 17.973-5.512v-4.014zm.184-2h20.816v8h-1c-6.352 0-12.542 1.803-17.899 5.213l-2.101 1.336v2.585c6.877-4.486 14.8-6.938 23-7.122v-11.012c0-.552-.449-1-1-1h-19c-1.302 0-2.402.839-2.816 2zm19.489 40.209c.535.234 1.993.815 4.1 1.253l-2.171-3.256c-4.117-6.176-9.761-11.276-16.321-14.75l-5.281-2.795v1.018c0 1.074.579 2.072 1.512 2.604l2.593 1.482c6.196 3.542 11.574 8.531 15.568 14.444zm9.327 1.791c.899 0 1.751-.048 2.549-.126l3.185-4.777c1.196-1.793 2.526-3.489 3.954-5.097h-19.376c1.428 1.607 2.759 3.303 3.954 5.097l3.185 4.776c.799.079 1.651.127 2.549.127zm29-20.321v-1.018l-5.281 2.795c-6.56 3.474-12.204 8.574-16.321 14.75l-2.173 3.259c2.113-.438 3.568-1.021 4.101-1.255 3.995-5.913 9.373-10.903 15.569-14.444l2.592-1.482c.934-.533 1.513-1.531 1.513-2.605zm-34.415 1.111c-1.007-.841-1.585-2.074-1.585-3.385 0-2.428 1.976-4.405 4.405-4.405h.184c.873 0 1.707.252 2.418.722.728-.48 1.547-.722 2.404-.722h.184c2.429 0 4.405 1.977 4.405 4.405 0 1.311-.578 2.544-1.584 3.384l-5.416 4.513zm.415-3.385c0 .716.315 1.39.866 1.849l4.134 3.444 4.135-3.445c.55-.458.865-1.132.865-1.848 0-1.326-1.079-2.405-2.405-2.405h-.184c-.643 0-1.247.25-1.701.704l-.774.774-.706-.841c-.394-.387-.998-.637-1.641-.637h-.184c-1.326 0-2.405 1.079-2.405 2.405z" fill="url(#SVGID_1_)" />
</svg>
